<svg version="1" xmlns="http://www.w3.org/2000/svg" width="1333.333" height="1333.333" viewBox="0 0 1000.000000 1000.000000"><path d="M55.1 226.1c-24.5 4.8-43.3 21.3-51.8 45.4l-2.8 8L.3 461C.1 624.5.2 643.2 1.6 649.5c5.9 25.4 24 44.1 49.7 51.2 5.7 1.6 19.4 1.7 180.7 1.8l174.5.1 10.4 18c5.7 9.8 11.4 19.7 12.6 21.9 1.2 2.2 3.9 6.9 6 10.5 2 3.6 4.5 7.8 5.5 9.5.9 1.6 9.5 16.5 18.9 33 9.5 16.5 21.8 37.9 27.3 47.5 5.6 9.6 10.7 18.6 11.5 19.8l1.5 2.4 2-3.9c1.1-2.1 6.1-10.8 11-19.3 5-8.5 17.8-30.8 28.6-49.5 10.7-18.7 24.5-42.6 30.5-53 6-10.5 12.3-21.5 14-24.5 1.6-3 3.5-6.1 4.1-6.9.5-.7 1.5-2.2 2.1-3.4l1-2.1 174.5-.1c96-.1 175.4-.5 176.5-.7 1.1-.3 4-1.1 6.5-1.8 18-4.8 34-18.4 42.3-36 7.2-15.3 6.7-1.6 6.4-203.2-.2-185.1-.2-183.7-3.7-191.3-.5-1.1-1.4-3.3-2-4.9-1.8-5-9.7-16-14.9-20.9-7.3-6.8-15.8-12-25.2-15.3l-8.4-2.9-443-.1c-248.4-.1-444.9.2-447.4.7z"/></svg>